<svg width="628" height="194" viewBox="0 0 628 194" fill="none" xmlns="http://www.w3.org/2000/svg">
<path d="M195.199 149.649H213.11V149.389C211.95 149.324 207.311 148.479 206.216 147.568C204.799 146.398 204.025 143.406 204.025 138.464V109.916L218.2 139.894C219.681 143.146 220.777 145.943 221.742 148.934H222.001L239.267 109.591V145.292C239.267 146.788 238.687 147.829 237.205 148.609C236.303 149.064 232.696 149.324 231.536 149.389V149.649H251.25V149.389C250.091 149.324 247.191 148.869 246.418 148.479C244.936 147.763 244.421 146.723 244.421 145.292V109.461C244.421 108.03 244.807 106.795 246.418 106.275C247.578 105.884 250.027 105.559 251.186 105.494V105.234H239.332C239.267 106.079 239.01 108.485 237.462 111.997L224.578 141.261L207.504 105.234H195.521V105.494C197.261 105.559 199.773 106.079 201.321 107.315C202.609 108.355 203.317 109.916 203.317 112.583V138.789C203.317 143.796 202.737 146.723 201.191 147.829C199.645 148.934 196.294 149.259 195.199 149.389V149.649ZM262.913 150.299C266.263 150.299 270.064 148.739 272.447 145.812H272.641C273.479 148.739 275.282 150.169 277.924 150.169C281.081 150.169 282.948 148.153 283.464 142.17H283.077C282.756 145.747 281.532 147.568 279.663 147.568C277.602 147.568 276.893 145.878 276.893 143.666C276.893 141.521 277.215 134.758 277.215 129.1C277.215 120.84 272.899 119.475 266.907 119.475C262.139 119.475 257.243 122.532 257.243 126.368C257.243 127.864 257.823 129.425 259.434 129.425C261.301 129.425 262.59 128.319 262.59 126.954C262.59 125.849 262.139 123.052 262.076 121.882C262.59 121.101 264.329 119.93 266.779 119.93C271.739 119.93 272.576 123.442 272.576 126.889L272.641 131.311C269.87 132.872 265.554 134.042 261.882 135.472C258.661 136.708 255.568 138.399 255.568 143.731C255.568 147.894 258.467 150.299 262.913 150.299M265.231 148.674C262.076 148.674 260.464 146.527 260.464 142.951C260.464 138.204 263.235 135.668 268.389 133.652C269.678 133.132 271.094 132.611 272.641 131.96L272.382 145.227C270.643 147.372 268.453 148.674 265.231 148.674M285.527 149.649H299.12V149.389C298.347 149.324 297.382 149.064 296.286 148.674C295.126 148.088 294.546 147.048 294.546 145.617V120.256L294.225 119.93L284.56 120.646V120.906C285.721 120.971 287.524 121.621 288.297 122.142C289.328 122.857 290.102 124.027 290.102 125.393V146.008C290.102 147.308 289.586 148.609 288.361 149C287.46 149.324 286.687 149.324 285.527 149.389V149.649ZM291.776 110.307C293.774 110.307 295.191 108.55 295.191 106.599C295.191 104.973 293.838 103.479 291.776 103.479C289.973 103.479 288.491 105.169 288.491 106.99C288.491 108.746 289.973 110.307 291.776 110.307ZM313.037 150.494C318.642 150.494 323.152 146.982 323.152 141.521C323.152 136.123 319.738 133.782 314.39 132.026C308.979 130.27 306.337 129.621 306.337 125.719C306.337 122.727 308.334 119.93 312.329 119.93C316.645 119.93 320.447 123.897 321.412 128.059H321.734L321.284 119.411H321.026L319.802 121.427C318.256 120.385 315.486 119.475 312.651 119.475C307.174 119.475 303.76 122.987 303.76 127.734C303.76 133.197 307.432 135.213 312.586 136.839C317.805 138.464 320.575 139.699 320.575 143.146C320.575 146.788 318.384 150.039 313.295 150.039C308.399 150.039 304.533 145.422 303.309 140.155H302.987L303.309 149.909H303.566L304.791 147.894C306.594 149.129 309.752 150.494 313.037 150.494M341.707 150.494C350.92 150.494 356.268 143.146 356.268 134.627C356.268 126.109 350.792 119.475 342.287 119.475C333.654 119.475 327.921 125.913 327.921 135.148C327.921 144.577 334.491 150.494 341.707 150.494M342.159 150.104C335.588 150.104 332.881 142.496 332.881 134.562C332.881 128.189 334.879 119.866 342.159 119.866C348.923 119.866 351.308 127.669 351.308 134.692C351.308 142.691 348.344 150.104 342.159 150.104M360.65 149.649H374.953V149.389C373.793 149.324 372.697 149.129 371.667 148.674C370.443 148.153 369.734 147.113 369.734 145.682V126.499C370.507 125.198 373.278 121.752 378.367 121.752C381.524 121.752 384.488 124.287 384.488 128.84V146.008C384.488 147.438 383.843 148.609 382.49 149C381.524 149.259 380.493 149.324 379.205 149.389V149.649H393.572V149.389C392.413 149.324 391.639 149.129 390.737 148.739C389.578 148.219 388.998 147.178 388.998 145.747V129.75C388.998 123.572 386.291 119.475 380.299 119.475C374.759 119.475 372.311 123.052 369.863 125.458H369.734V120.191L369.476 119.93L360.392 120.646V120.906C361.552 120.971 362.777 121.427 363.549 121.947C364.579 122.662 365.288 124.027 365.288 125.393V146.008C365.288 147.438 364.708 148.609 363.485 149C362.583 149.324 361.809 149.324 360.65 149.389V149.649ZM431.855 150.429C435.913 150.429 439.071 147.503 440.487 146.008L440.746 146.072V149.389L441.067 149.714L450.667 149.129V148.869C449.508 148.804 447.639 148.609 446.866 148.088C445.836 147.372 445.191 146.268 445.191 144.902V101.462L444.868 101.137L433.336 101.787V101.982C435.076 102.112 437.911 102.633 439.006 103.413C439.972 104.128 440.681 105.494 440.681 107.185V121.231C439.908 120.906 436.944 119.475 432.885 119.475C425.218 119.475 418.067 125.719 418.067 134.562C418.067 144.317 424.124 150.429 431.855 150.429ZM433.53 148.544C426.314 148.544 423.157 142.041 423.157 135.342C423.157 126.174 427.217 119.866 432.628 119.866C437.46 119.866 439.715 123.247 440.681 126.109V145.162C438.877 147.048 436.88 148.544 433.53 148.544ZM467.096 150.299C472.251 150.299 476.245 147.308 478.435 142.691L478.113 142.496C475.666 146.462 473.604 148.609 468.514 148.609C461.556 148.609 458.527 142.106 458.527 133.652V133.002H477.856V132.546C477.856 125.133 474.763 119.475 466.388 119.475C458.27 119.475 453.567 127.019 453.567 134.692C453.567 143.146 457.819 150.299 467.096 150.299M458.527 132.481C458.721 124.417 462.007 119.866 466.516 119.866C471.929 119.866 473.024 125.719 473.024 132.351L458.527 132.481ZM518.78 150.429C525.48 150.429 531.73 145.488 531.73 137.098C531.73 130.205 528.121 127.864 522.453 125.133C519.296 123.572 516.975 122.857 513.562 121.036C509.824 119.021 507.892 116.809 507.892 112.712C507.892 109.005 511.049 105.104 515.688 105.104C523.032 105.104 527.027 111.022 529.732 119.215H530.055L529.732 104.518H529.54L527.091 108.485C524.836 106.599 521.679 104.518 516.203 104.518C509.889 104.518 504.993 109.2 504.993 116.029C504.993 122.012 507.635 125.133 512.402 127.344C516.589 129.295 517.814 129.75 521.873 131.505C525.803 133.197 528.315 136.253 528.315 140.284C528.315 145.422 525.029 149.845 519.038 149.845C511.693 149.845 507.055 144.057 503.897 135.472H503.64L504.091 150.299H504.284L506.732 146.333C509.824 148.544 513.368 150.429 518.78 150.429M537.593 149.649H556.212V149.389C555.052 149.324 552.283 148.804 551.509 148.479C550.027 147.829 549.512 146.788 549.512 145.357V109.395C549.512 107.965 549.898 106.795 551.509 106.275C552.669 105.884 555.052 105.559 556.212 105.494V105.234H537.593V105.494C538.752 105.559 541.137 106.144 542.296 106.599C543.97 107.25 544.293 108.291 544.293 109.72V145.682C544.293 147.113 543.842 148.219 542.296 148.804C541.459 149.129 538.752 149.324 537.593 149.389V149.649ZM597.098 150.364C602.253 150.364 603.928 147.372 603.928 141.261V139.894H603.477V141.261C603.477 146.202 601.479 147.633 599.74 147.633C598.001 147.633 596.905 146.462 596.197 143.927C595.295 140.741 594.908 137.359 593.942 133.782C592.718 129.231 588.015 127.149 582.603 126.889V126.694C588.659 125.719 596.197 122.337 596.197 115.248C596.197 108.16 588.788 105.234 583.827 105.234H562.115V105.494C563.275 105.559 565.466 105.949 566.56 106.275C568.171 106.73 568.558 108.095 568.558 109.526V145.488C568.558 146.917 568.107 148.153 566.56 148.739C565.723 149.064 563.275 149.324 562.115 149.389V149.649H580.605V149.389C579.445 149.324 576.676 149.129 575.773 148.804C574.227 148.219 573.776 146.982 573.776 145.553V127.149H579.897C587.241 127.149 588.594 134.497 589.303 139.244C590.398 146.527 592.332 150.364 597.098 150.364M573.776 126.629V105.689H580.735C585.308 105.689 589.819 108.485 589.819 116.224C589.819 123.507 584.665 126.629 578.93 126.629H573.776ZM606.674 149.649H625.294V149.389C624.133 149.324 621.363 148.804 620.591 148.479C619.109 147.829 618.592 146.788 618.592 145.357V109.395C618.592 107.965 618.98 106.795 620.591 106.275C621.75 105.884 624.133 105.559 625.294 105.494V105.234H606.674V105.494C607.834 105.559 610.217 106.144 611.377 106.599C613.053 107.25 613.375 108.291 613.375 109.72V145.682C613.375 147.113 612.924 148.219 611.377 148.804C610.539 149.129 607.834 149.324 606.674 149.389V149.649Z" fill="#140012"/>
<path d="M625.963 174.456H54.9389V174.668H625.963V174.456Z" fill="#120800" stroke="#120800" stroke-width="2.66667" stroke-miterlimit="10"/>
<path d="M3.59733 173.275H108.995V37.0517L3.59733 94.5256V173.275ZM0 176.912V93.4473V92.3598L112.593 30.9637V176.912H0Z" fill="#120800"/>
<path d="M169.733 193.357V59.4473L52.4854 4.00921e-06V193.357H169.733ZM95.8278 139.936H70.81V67.0005H95.8278V139.936Z" fill="#140012"/>
</svg>
