<?xml version="1.0" encoding="UTF-8" standalone="no"?>
<svg
   xmlns:dc="http://purl.org/dc/elements/1.1/"
   xmlns:cc="http://creativecommons.org/ns#"
   xmlns:rdf="http://www.w3.org/1999/02/22-rdf-syntax-ns#"
   xmlns:svg="http://www.w3.org/2000/svg"
   xmlns="http://www.w3.org/2000/svg"
   viewBox="0 0 1821.3333 1024"
   height="1024"
   width="1821.3333"
   xml:space="preserve"
   id="svg2"
   version="1.1"><metadata
     id="metadata8"><rdf:RDF><cc:Work
         rdf:about=""><dc:format>image/svg+xml</dc:format><dc:type
           rdf:resource="http://purl.org/dc/dcmitype/StillImage" /></cc:Work></rdf:RDF></metadata><defs
     id="defs6"><clipPath
       id="clipPath18"
       clipPathUnits="userSpaceOnUse"><path
         id="path16"
         d="M 0,768 H 1366 V 0 H 0 Z" /></clipPath></defs><g
     transform="matrix(1.3333333,0,0,-1.3333333,0,1024)"
     id="g10"><g
       id="g12"><g
         clip-path="url(#clipPath18)"
         id="g14"><g
           transform="translate(566.2439,360.9773)"
           id="g20"><path
             id="path22"
             style="fill:#140012;fill-opacity:1;fill-rule:nonzero;stroke:none"
             d="M 0,0 H 17.755 V 0.255 C 16.605,0.319 12.006,1.149 10.921,2.044 9.516,3.193 8.749,6.131 8.749,10.985 V 39.022 L 22.8,9.58 c 1.469,-3.193 2.555,-5.94 3.512,-8.878 h 0.256 L 43.684,39.341 V 4.279 C 43.684,2.81 43.109,1.788 41.64,1.022 40.746,0.575 37.17,0.319 36.02,0.255 V 0 h 19.543 v 0.255 c -1.149,0.064 -4.024,0.511 -4.79,0.894 -1.469,0.703 -1.98,1.725 -1.98,3.13 v 35.19 c 0,1.405 0.383,2.618 1.98,3.129 1.15,0.384 3.577,0.703 4.726,0.767 V 43.62 H 43.748 C 43.684,42.79 43.429,40.427 41.895,36.978 L 29.123,8.238 12.198,43.62 H 0.319 V 43.365 C 2.044,43.301 4.534,42.79 6.068,41.576 7.345,40.555 8.047,39.022 8.047,36.403 V 10.666 C 8.047,5.748 7.472,2.874 5.94,1.788 4.407,0.702 1.085,0.383 0,0.255 Z m 67.124,-0.638 c 3.321,0 7.089,1.532 9.451,4.406 h 0.192 c 0.831,-2.874 2.618,-4.279 5.237,-4.279 3.13,0 4.981,1.98 5.492,7.856 H 87.113 C 86.794,3.832 85.581,2.044 83.728,2.044 c -2.043,0 -2.746,1.66 -2.746,3.832 0,2.107 0.32,8.749 0.32,14.305 0,8.112 -4.279,9.453 -10.219,9.453 -4.726,0 -9.58,-3.002 -9.58,-6.77 0,-1.469 0.575,-3.002 2.172,-3.002 1.851,0 3.129,1.086 3.129,2.427 0,1.085 -0.447,3.832 -0.51,4.981 0.51,0.767 2.234,1.917 4.662,1.917 4.917,0 5.747,-3.449 5.747,-6.834 l 0.064,-4.343 c -2.746,-1.533 -7.025,-2.682 -10.665,-4.087 -3.193,-1.214 -6.259,-2.874 -6.259,-8.111 0,-4.088 2.874,-6.45 7.281,-6.45 m 2.298,1.596 c -3.128,0 -4.726,2.108 -4.726,5.62 0,4.662 2.747,7.153 7.856,9.133 1.278,0.51 2.682,1.022 4.215,1.661 L 76.511,4.343 C 74.787,2.236 72.616,0.958 69.422,0.958 M 89.541,0 h 13.475 v 0.255 c -0.766,0.064 -1.723,0.32 -2.81,0.703 -1.149,0.575 -1.724,1.597 -1.724,3.002 v 24.907 l -0.319,0.32 -9.58,-0.703 v -0.255 c 1.15,-0.064 2.938,-0.703 3.704,-1.214 1.022,-0.703 1.789,-1.852 1.789,-3.193 V 3.576 c 0,-1.277 -0.511,-2.554 -1.725,-2.938 -0.894,-0.319 -1.66,-0.319 -2.81,-0.383 z m 6.195,38.638 c 1.98,0 3.385,1.725 3.385,3.641 0,1.597 -1.341,3.065 -3.385,3.065 -1.788,0 -3.257,-1.66 -3.257,-3.449 0,-1.724 1.469,-3.257 3.257,-3.257 M 116.812,-0.83 c 5.556,0 10.027,3.449 10.027,8.813 0,5.301 -3.385,7.6 -8.686,9.325 -5.364,1.724 -7.983,2.362 -7.983,6.194 0,2.938 1.98,5.685 5.94,5.685 4.278,0 8.047,-3.896 9.004,-7.983 h 0.319 l -0.446,8.493 h -0.256 l -1.213,-1.98 c -1.533,1.023 -4.279,1.917 -7.089,1.917 -5.429,0 -8.814,-3.449 -8.814,-8.111 0,-5.365 3.64,-7.345 8.75,-8.942 5.173,-1.596 7.919,-2.809 7.919,-6.194 0,-3.577 -2.172,-6.77 -7.217,-6.77 -4.853,0 -8.685,4.534 -9.899,9.707 h -0.319 l 0.319,-9.579 h 0.255 l 1.214,1.979 c 1.788,-1.213 4.918,-2.554 8.175,-2.554 m 28.42,0 c 9.133,0 14.434,7.217 14.434,15.583 0,8.366 -5.428,14.881 -13.859,14.881 -8.558,0 -14.241,-6.323 -14.241,-15.392 0,-9.261 6.513,-15.072 13.666,-15.072 m 0.448,0.383 c -6.514,0 -9.197,7.472 -9.197,15.264 0,6.259 1.98,14.433 9.197,14.433 6.705,0 9.069,-7.663 9.069,-14.561 0,-7.855 -2.938,-15.136 -9.069,-15.136 M 164.01,0 h 14.178 v 0.255 c -1.149,0.064 -2.236,0.256 -3.257,0.703 -1.213,0.511 -1.916,1.533 -1.916,2.938 v 18.84 c 0.766,1.277 3.513,4.662 8.558,4.662 3.129,0 6.067,-2.49 6.067,-6.961 V 3.576 c 0,-1.404 -0.639,-2.554 -1.98,-2.938 -0.958,-0.255 -1.98,-0.319 -3.257,-0.383 V 0 h 14.242 v 0.255 c -1.149,0.064 -1.916,0.256 -2.81,0.639 -1.149,0.511 -1.724,1.533 -1.724,2.938 v 15.711 c 0,6.067 -2.683,10.091 -8.623,10.091 -5.492,0 -7.919,-3.513 -10.345,-5.876 h -0.128 v 5.173 l -0.256,0.256 -9.005,-0.703 v -0.255 c 1.15,-0.064 2.364,-0.512 3.13,-1.023 1.021,-0.702 1.724,-2.043 1.724,-3.384 V 3.576 c 0,-1.404 -0.575,-2.554 -1.788,-2.938 -0.894,-0.319 -1.661,-0.319 -2.81,-0.383 z m 70.585,-0.766 c 4.023,0 7.153,2.874 8.557,4.342 l 0.256,-0.063 V 0.255 l 0.319,-0.319 9.516,0.575 v 0.255 c -1.149,0.064 -3.002,0.256 -3.768,0.767 -1.021,0.703 -1.66,1.788 -1.66,3.129 v 42.662 l -0.32,0.32 -11.432,-0.639 v -0.191 c 1.725,-0.128 4.535,-0.64 5.621,-1.406 0.957,-0.702 1.66,-2.043 1.66,-3.704 V 27.909 c -0.766,0.32 -3.704,1.725 -7.728,1.725 -7.6,0 -14.689,-6.132 -14.689,-14.817 0,-9.58 6.004,-15.583 13.668,-15.583 m 1.66,1.851 c -7.153,0 -10.282,6.387 -10.282,12.966 0,9.004 4.024,15.199 9.388,15.199 4.79,0 7.025,-3.321 7.983,-6.131 V 4.407 c -1.788,-1.852 -3.768,-3.322 -7.089,-3.322 m 33.274,-1.723 c 5.11,0 9.069,2.937 11.24,7.472 l -0.319,0.191 c -2.426,-3.895 -4.47,-6.003 -9.515,-6.003 -6.898,0 -9.9,6.386 -9.9,14.689 v 0.638 h 19.16 v 0.448 c 0,7.28 -3.066,12.837 -11.368,12.837 -8.047,0 -12.709,-7.409 -12.709,-14.945 0,-8.302 4.215,-15.327 13.411,-15.327 m -8.494,17.499 c 0.192,7.919 3.449,12.389 7.919,12.389 5.366,0 6.451,-5.748 6.451,-12.262 z m 59.728,-17.627 c 6.642,0 12.837,4.853 12.837,13.092 0,6.77 -3.577,9.069 -9.196,11.751 -3.13,1.533 -5.43,2.235 -8.814,4.024 -3.705,1.979 -5.62,4.151 -5.62,8.175 0,3.64 3.129,7.472 7.728,7.472 7.28,0 11.24,-5.812 13.922,-13.859 h 0.32 l -0.32,14.434 h -0.191 l -2.427,-3.896 c -2.236,1.852 -5.365,3.896 -10.794,3.896 -6.259,0 -11.112,-4.598 -11.112,-11.305 0,-5.876 2.619,-8.941 7.344,-11.112 4.151,-1.916 5.365,-2.363 9.389,-4.087 3.896,-1.661 6.386,-4.663 6.386,-8.622 0,-5.046 -3.257,-9.389 -9.196,-9.389 -7.281,0 -11.879,5.684 -15.009,14.115 h -0.255 l 0.447,-14.561 h 0.191 l 2.427,3.895 c 3.065,-2.172 6.578,-4.023 11.943,-4.023 M 339.412,0 h 18.457 v 0.255 c -1.15,0.064 -3.895,0.575 -4.662,0.894 -1.469,0.639 -1.98,1.661 -1.98,3.066 v 35.318 c 0,1.405 0.383,2.554 1.98,3.065 1.15,0.384 3.512,0.703 4.662,0.767 v 0.255 h -18.457 v -0.255 c 1.149,-0.064 3.513,-0.639 4.662,-1.086 1.66,-0.639 1.98,-1.661 1.98,-3.065 V 3.896 c 0,-1.405 -0.447,-2.491 -1.98,-3.066 -0.83,-0.319 -3.513,-0.511 -4.662,-0.575 z m 58.987,-0.702 c 5.11,0 6.77,2.938 6.77,8.94 V 9.58 h -0.447 V 8.238 c 0,-4.853 -1.98,-6.258 -3.704,-6.258 -1.724,0 -2.81,1.15 -3.512,3.64 -0.894,3.129 -1.278,6.45 -2.236,9.963 -1.213,4.47 -5.875,6.514 -11.24,6.77 v 0.191 c 6.003,0.958 13.476,4.279 13.476,11.241 0,6.961 -7.345,9.835 -12.262,9.835 h -21.523 v -0.255 c 1.149,-0.064 3.321,-0.447 4.406,-0.767 1.597,-0.447 1.98,-1.788 1.98,-3.193 V 4.087 c 0,-1.404 -0.447,-2.618 -1.98,-3.193 -0.83,-0.319 -3.257,-0.575 -4.406,-0.639 V 0 h 18.329 v 0.255 c -1.15,0.064 -3.895,0.256 -4.79,0.575 -1.533,0.575 -1.98,1.789 -1.98,3.193 v 18.074 h 6.068 c 7.28,0 8.621,-7.216 9.324,-11.878 1.085,-7.153 3.002,-10.921 7.727,-10.921 m -23.119,23.31 v 20.565 h 6.898 c 4.534,0 9.005,-2.746 9.005,-10.346 0,-7.153 -5.109,-10.219 -10.794,-10.219 z M 407.892,0 h 18.457 v 0.255 c -1.15,0.064 -3.896,0.575 -4.662,0.894 -1.469,0.639 -1.981,1.661 -1.981,3.066 v 35.318 c 0,1.405 0.384,2.554 1.981,3.065 1.149,0.384 3.512,0.703 4.662,0.767 v 0.255 h -18.457 v -0.255 c 1.149,-0.064 3.512,-0.639 4.662,-1.086 1.661,-0.639 1.98,-1.661 1.98,-3.065 V 3.896 c 0,-1.405 -0.447,-2.491 -1.98,-3.066 -0.831,-0.319 -3.513,-0.511 -4.662,-0.575 z" /></g><path
           id="path24"
           style="fill:#120800;fill-opacity:1;fill-rule:nonzero;stroke:#120800;stroke-width:2;stroke-linecap:butt;stroke-linejoin:miter;stroke-miterlimit:10;stroke-dasharray:none;stroke-opacity:1"
           d="M 993.256,336.615 H 427.205 v -0.209 h 566.051 z" /><g
           transform="translate(376.3105,337.774)"
           id="g26"><path
             id="path28"
             style="fill:#120800;fill-opacity:1;fill-rule:nonzero;stroke:none"
             d="M 0,0 H 104.48 V 133.785 L 0,77.34 Z m -3.566,-3.571 v 81.97 1.068 l 111.613,60.297 V -3.571 Z" /></g><g
           transform="translate(540.9998,318.0523)"
           id="g30"><path
             id="path32"
             style="fill:#140012;fill-opacity:1;fill-rule:nonzero;stroke:none"
             d="m 0,0 v 131.512 l -116.227,58.383 V 0 Z m -73.262,52.464 h -24.8 v 71.63 h 24.8 z" /></g></g></g></g></svg>